HIERARCHY
ROOT Root
{
  OFFSET -9.9739 11.8861 8.49106
  CHANNELS 6 Xposition Yposition Zposition Zrotation Xrotation Yrotation
  JOINT Spine
  {
    OFFSET 5.3114 0 0
    CHANNELS 3 Zrotation Xrotation Yrotation
    JOINT Spine1
    {
      OFFSET 2.79004 0 0
      CHANNELS 3 Zrotation Xrotation Yrotation
      JOINT Neck
      {
        OFFSET 1.43377 0 0
        CHANNELS 3 Zrotation Xrotation Yrotation
        JOINT Head
        {
          OFFSET 1.86043 0 0
          CHANNELS 3 Zrotation Xrotation Yrotation
          End Site
          {
            OFFSET 0 0 0
          }
        }
      }
      JOINT LeftArm
      {
        OFFSET 0.0387506 0 2.55754
        CHANNELS 3 Zrotation Xrotation Yrotation
        JOINT LeftForeArm
        {
          OFFSET 4.24845 0 0
          CHANNELS 3 Zrotation Xrotation Yrotation
          JOINT LeftHand
          {
            OFFSET 4.01008 0 0
            CHANNELS 3 Zrotation Xrotation Yrotation
            End Site
            {
              OFFSET 0 0 0
            }
          }
        }
      }
      JOINT RightArm
      {
        OFFSET 0.0387506 0 -2.55754
        CHANNELS 3 Zrotation Xrotation Yrotation
        JOINT RightForeArm
        {
          OFFSET -4.24845 0 0
          CHANNELS 3 Zrotation Xrotation Yrotation
          JOINT RightHand
          {
            OFFSET -4.01009 0 0
            CHANNELS 3 Zrotation Xrotation Yrotation
            End Site
            {
              OFFSET 0 0 0
            }
          }
        }
      }
    }
  }
  JOINT LeftUpLeg
  {
    OFFSET -1.23318 0 2.05692
    CHANNELS 3 Zrotation Xrotation Yrotation
    JOINT LeftLeg
    {
      OFFSET 5.46397 0 0
      CHANNELS 3 Zrotation Xrotation Yrotation
      JOINT LeftFoot
      {
        OFFSET 4.68898 0 0
        CHANNELS 3 Zrotation Xrotation Yrotation
        End Site
        {
          OFFSET 0 0 0
        }
      }
    }
  }
  JOINT RightUpLeg
  {
    OFFSET -1.24454 0 -2.05007
    CHANNELS 3 Zrotation Xrotation Yrotation
    JOINT RightLeg
    {
      OFFSET -5.46397 0 0
      CHANNELS 3 Zrotation Xrotation Yrotation
      JOINT RightFoot
      {
        OFFSET -4.68901 0 0
        CHANNELS 3 Zrotation Xrotation Yrotation
        End Site
        {
          OFFSET 0 0 0
        }
      }
    }
  }
}
MOTION
Frames:	21
Frame Time:	0.0416667
16.9689 11.8422 -12.0248 102.321 -15.0114 1.34895 -5.93953 3.30298 5.0927 5.72701 1.05281 1.61222 -2.51189 1.84389 -0.32072 4.20394 2.64836 -5.6807 3.66854 -20.2521 -171.135 27.6713 0.0814629 16.3295 -2.082 -14.4937 174.19 172.465 -26.456 -143.659 39.6346 2.57499 23.1347 0.907606 6.43056 174.404 -50.7046 3.25292 179.015 -38.6525 0.590945 -0.679948 25.5275 -12.5424 -172.657 161.302 1.52523 176.206 -34.9059 0.364742 -0.649505 -4.44894 21.3298 -176.965 
16.6318 11.7885 -12.1569 101.705 -14.9076 0.25584 -5.63037 3.66354 5.06173 6.10663 1.13987 1.26397 -2.7047 1.70398 -0.341317 3.8735 2.45843 -5.04096 3.39083 -18.554 -170.947 25.1337 -0.256906 14.8473 -1.76407 -12.3549 174.264 173.765 -29.7871 -143.192 43.0889 3.56951 25.0238 1.01651 7.19456 174.391 -51.1555 2.15825 179.893 -37.6894 0.566018 -0.713016 24.947 -13.5101 -172.397 164.831 2.15375 175.117 -33.3811 0.358845 -0.653014 -4.89718 21.8534 -176.831 
16.2732 11.7194 -12.2761 101.404 -15.248 -0.33699 -5.58077 4.3519 4.56947 6.53869 1.32065 0.941477 -3.26389 1.61482 -0.343798 3.85005 2.35547 -4.47516 3.01815 -17.0728 -170.495 23.2032 -0.468995 13.7136 -1.56461 -10.9946 174.304 175.517 -32.6184 -142.924 45.9977 4.50122 26.5787 1.20442 8.50622 174.365 -51.1583 1.57996 -179.262 -37.3441 0.561178 -0.725018 24.9378 -13.7505 -172.298 167.649 2.65596 174.548 -32.5205 0.358633 -0.655492 -5.62316 22.428 -176.575 
15.8914 11.6491 -12.3812 101.311 -15.6542 -0.29707 -5.66812 4.75175 3.36733 6.73597 1.42528 0.896591 -3.47549 1.69031 -0.555418 3.42554 2.62921 -3.79012 3.2981 -15.2484 -170.258 22.3667 -0.549491 13.2211 -1.46222 -10.2911 174.323 178.657 -35.5655 -142.355 48.2457 5.27901 27.7564 1.3505 9.51985 174.342 -50.6042 3.63193 -178.425 -38.014 0.553876 -0.72635 24.8629 -14.1384 -172.175 169.655 1.91372 174.458 -33.0284 0.3591 -0.658074 -4.70908 22.5296 -176.811 
15.4755 11.5952 -12.4737 101.202 -16.0375 -0.359935 -5.76866 4.98836 2.40364 6.99948 1.47703 0.742411 -3.85492 1.7605 -0.659219 2.80911 2.87085 -3.51351 3.94302 -14.3311 -170.007 22.5823 -0.529569 13.3481 -1.50974 -10.6225 174.318 -178.011 -38.0075 -142.292 49.9055 5.88641 28.6113 1.41412 9.9595 174.331 -49.514 6.19207 -177.714 -39.9889 0.513494 -0.68055 25.6881 -15.4062 -171.507 171.908 1.40368 174.582 -33.3842 0.360207 -0.659942 -4.68303 22.0195 -176.786 
15.0262 11.5971 -12.5487 101.896 -15.736 0.485515 -6.65339 4.94881 0.51162 7.25148 1.45394 0.889629 -4.37716 1.76869 -0.862883 2.4451 2.98554 -3.42748 4.25162 -13.7264 -169.81 22.6708 -0.521187 13.4002 -1.51051 -10.6276 174.318 -173.817 -39.878 -142.408 50.7889 6.22033 29.0614 1.54632 10.8691 174.308 -49.0599 8.35537 -177.938 -41.5505 0.504963 -0.643453 23.7678 -16.8942 -171.581 173.308 0.102225 175.515 -33.8407 0.361915 -0.660278 -4.86622 20.0463 -176.71 
14.569 11.6099 -12.6144 102.599 -14.2703 1.09008 -7.33043 4.36186 -1.2112 7.36343 1.26353 0.975945 -4.47529 1.64616 -1.5387 1.25793 2.96597 -2.89634 3.89285 -13.9745 -169.195 22.5654 -0.53185 13.338 -1.5032 -10.577 174.319 -170.231 -40.276 -144.29 50.2164 6.00212 28.7716 1.66027 11.6487 174.285 -49.0826 11.3095 -177.952 -43.5583 0.544626 -0.577347 19.3428 -14.9753 -173.384 174.359 -0.811284 176.223 -34.9886 0.36882 -0.649507 -5.43333 16.4359 -176.736 
14.1078 11.655 -12.6612 102.712 -12.7762 1.2653 -7.48118 3.99985 -2.16257 7.20079 1.12941 0.823861 -4.28114 1.38408 -2.25394 0.740807 2.60735 -2.89214 3.32704 -14.8636 -168.561 22.6012 -0.52783 13.3592 -1.45458 -10.2385 174.324 -167.491 -39.5327 -147.37 47.7333 5.09754 27.4903 1.74409 12.2193 174.268 -47.533 12.4392 -178.669 -44.6914 0.563416 -0.529789 18.561 -13.2195 -173.999 175.421 -0.681578 177.13 -36.8066 0.395031 -0.623037 -7.09157 10.7316 -176.979 
13.6666 11.7166 -12.6862 103.047 -11.9943 2.04172 -7.80582 3.77355 -3.22649 7.15812 1.03041 0.698447 -4.67764 1.41493 -2.47958 1.42694 2.65664 -3.69893 2.39585 -16.811 -168.022 23.2318 -0.465938 13.7303 -1.55069 -10.8988 174.307 -166.275 -38.6396 -150.606 43.6029 3.72913 25.3 1.86468 13.0358 174.242 -45.0233 11.1222 179.137 -44.4577 0.587377 -0.532462 20.4774 -13.6579 -173.414 173.887 0.284585 179.284 -42.0049 0.460214 -0.551538 -9.75317 3.09181 -177.89 
13.2487 11.7626 -12.7081 103.409 -11.5956 2.71379 -7.98423 3.31381 -3.98678 6.99237 0.889799 0.876415 -4.62404 1.6398 -2.74621 1.28007 3.14192 -4.17046 1.42238 -19.0226 -167.774 24.7325 -0.30463 14.6121 -1.64627 -11.5531 174.288 -166.36 -36.5935 -153.861 38.9271 2.3851 22.7442 2.08216 14.495 174.19 -42.844 11.1154 177.879 -44.39 0.618313 -0.528248 21.9664 -12.9174 -173.341 169.349 0.985219 -178.737 -51.2034 0.545008 -0.413724 -10.6696 -2.08025 -178.901 
12.8424 11.8212 -12.7251 103.861 -11.4373 3.00154 -8.12845 2.62974 -4.15994 6.96858 0.707829 1.17199 -4.66409 1.96683 -2.73907 1.08027 3.79043 -4.51617 -0.0136167 -21.9879 -167.369 26.3571 -0.10153 15.5629 -1.90964 -13.3388 174.231 -168.018 -32.6065 -157.301 34.2258 1.26295 20.1026 2.36857 16.3867 174.114 -40.6751 11.3914 177.293 -43.9496 0.648085 -0.523264 23.2618 -12.0128 -173.408 162.656 0.391121 -177.884 -61.6136 0.602568 -0.23477 -6.68121 -2.48614 -178.871 
12.4534 11.8672 -12.7425 103.773 -11.2138 2.56702 -7.56445 1.64167 -3.357 6.77699 0.455631 1.27764 -4.53177 2.2123 -2.73252 1.0324 4.27198 -4.57863 -1.95751 -25.4457 -166.665 27.3531 0.035069 16.1442 -2.1591 -15.0063 174.17 -171.118 -25.5542 -160.951 29.1719 0.312515 17.2009 2.69109 18.4731 174.017 -38.3522 10.4126 176.878 -43.9801 0.672052 -0.518401 25.7344 -11.3347 -173.204 155.766 -0.430682 -178.022 -69.8402 0.611156 -0.0770843 -3.34224 -1.64699 -178.675 
12.0542 11.8798 -12.7593 103.319 -10.4896 1.99862 -7.08482 0.428347 -2.47597 6.83793 0.141478 1.43037 -4.14536 2.25001 -2.8329 1.56078 4.33219 -4.09441 -4.61483 -28.7318 -165.9 27.1984 0.0130397 16.054 -2.06292 -14.3663 174.195 -174.298 -15.6054 -164.04 24.5752 -0.323659 14.5205 3.13078 21.2367 173.868 -36.1048 8.96498 176.279 -44.6182 0.687651 -0.508784 27.8271 -10.8369 -173.076 149.341 -1.40151 -178.407 -74.6315 0.586845 0.0195048 -3.70556 -0.723467 -178.616 
11.66 11.8561 -12.771 103.32 -8.92563 1.68853 -7.24852 -1.08434 -2.27251 6.81302 -0.243005 2.17924 -4.198 2.16998 -2.82699 3.14985 4.07486 -3.61947 -7.81279 -30.9705 -165.707 27.0202 -0.0120401 15.9501 -1.93571 -13.5144 174.225 -175.9 -6.85417 -165.691 21.5142 -0.62508 12.7187 3.33782 22.5032 173.791 -34.5588 7.54236 175.341 -45.4726 0.71226 -0.490962 29.7893 -9.87525 -173.177 142.981 -1.96753 -178.641 -76.6638 0.563751 0.0609634 -4.67605 0.760547 -178.512 
11.2651 11.8089 -12.789 103.232 -7.27142 1.18193 -7.27738 -2.26131 -2.03682 6.68049 -0.542456 2.78375 -4.00171 1.99843 -2.73453 4.04626 3.67731 -3.01472 -11.1487 -32.5 -165.632 27.1277 0.00297499 16.013 -1.88666 -13.184 174.237 -175.849 -2.16507 -166.838 20.5952 -0.695582 12.1756 3.33315 22.4748 173.792 -33.125 6.67754 174.991 -46.8612 0.745293 -0.462757 31.4922 -8.44852 -173.622 137.665 -2.49526 -179.309 -75.5881 0.56211 0.0376246 -5.01403 2.23678 -178.406 
10.8505 11.7726 -12.7997 102.973 -5.61883 0.711528 -7.12821 -3.28669 -1.69244 6.7225 -0.81067 3.08295 -4.04371 1.88284 -2.81658 4.51258 3.47092 -2.32549 -14.1594 -33.4826 -165.689 27.9229 0.118295 16.4757 -1.94788 -13.5962 174.222 -174.901 -0.993984 -167.806 21.1197 -0.65536 12.4854 3.29606 22.2495 173.806 -30.9696 6.00747 174.702 -47.4914 0.774194 -0.447932 32.9892 -7.17992 -174.087 133.789 -3.2146 -179.962 -71.4632 0.588293 -0.0480662 -4.15233 3.54804 -178.416 
10.4227 11.7713 -12.7969 102.856 -4.0806 0.586565 -7.10317 -3.87795 -1.65906 6.57287 -0.979387 3.14109 -3.7648 1.64111 -2.88234 4.32613 3.04423 -1.72939 -15.9533 -34.7134 -165.597 29.9 0.433487 17.6224 -2.12453 -14.7767 174.179 -173.419 -1.72899 -169.029 22.5931 -0.527877 13.3543 2.94546 20.0836 173.933 -28.1072 5.03425 174.012 -46.4748 0.792249 -0.462113 34.1676 -6.22254 -174.438 131.252 -4.17621 179.666 -64.4798 0.623179 -0.188421 -1.91356 4.02377 -178.602 
9.97714 11.7779 -12.7888 102.649 -2.92759 0.565641 -7.023 -4.10724 -1.50753 6.41519 -1.04514 3.15882 -3.38133 1.4493 -3.31717 4.01549 2.79487 -1.14231 -16.8544 -35.6107 -165.758 32.6899 0.947447 19.2266 -2.31012 -16.0031 174.13 -172.315 -2.92407 -169.977 24.3665 -0.346297 14.3973 2.52373 17.3963 174.069 -24.5391 4.22887 173.402 -44.5894 0.797755 -0.493261 35.2124 -5.47918 -174.708 130.268 -5.30852 179.222 -54.8775 0.621637 -0.365998 -0.77784 3.72589 -178.73 
9.50822 11.7708 -12.7812 102.458 -2.21489 0.762577 -7.13078 -4.0115 -1.51855 6.43515 -1.02129 3.0967 -3.21896 1.31199 -3.53134 4.01327 2.57969 -0.922386 -16.4938 -36.2341 -165.749 36.1501 1.69653 21.1911 -2.49913 -17.2368 174.076 -171.891 -3.98457 -170.645 25.7513 -0.18066 15.2088 2.28487 15.8373 174.137 -20.5136 4.25205 173.016 -42.2428 0.800139 -0.533092 35.8574 -4.56241 -175.184 130.029 -6.33723 178.864 -44.1013 0.559905 -0.535169 -1.50797 3.70311 -178.727 
9.03226 11.757 -12.7716 102.292 -1.49554 1.16309 -7.38687 -4.07404 -1.68082 6.611 -1.04422 2.99754 -3.38647 1.25125 -3.6738 4.5225 2.47417 -0.792336 -15.2662 -36.6 -165.591 39.3437 2.49604 22.9746 -2.65452 -18.2388 174.028 -171.842 -5.32946 -170.767 26.7067 -0.0552834 15.7672 2.12749 14.7963 174.178 -16.1221 4.11938 172.412 -38.9669 0.7988 -0.577242 36.0146 -3.66981 -175.695 129.747 -8.35449 178.516 -34.8888 0.500163 -0.64716 -0.987148 4.04543 -178.901 
8.57342 11.7267 -12.7617 102.237 -0.547604 1.72198 -7.67014 -4.09993 -2.02816 6.68105 -1.05349 3.0689 -3.32738 1.12619 -3.72099 4.51456 2.23343 -0.938935 -13.6003 -37.1907 -165.546 41.6101 3.12714 24.2213 -2.7519 -18.861 173.998 -171.972 -6.6306 -170.33 27.8597 0.109462 16.4389 1.99458 13.9094 174.211 -12.0102 3.86548 171.681 -35.6728 0.789608 -0.608485 35.6265 -3.06963 -176.088 129.094 -12.1632 178.013 -29.2559 0.469077 -0.668328 0.916624 3.38857 -179.216 
